<svg xmlns="http://www.w3.org/2000/svg" width="199.01" height="35" viewBox="0 0 199.01 35"><rect class="svg__rect" x="0" y="0" width="125.3" height="35" fill="#31C4F3"/><rect class="svg__rect" x="123.3" y="0" width="75.71000000000001" height="35" fill="#389AD5"/><path class="svg__text" d="M13.95 18.19L13.95 18.19L13.95 17.39Q13.95 16.19 14.38 15.27Q14.80 14.35 15.60 13.85Q16.40 13.35 17.45 13.35L17.45 13.35Q18.86 13.35 19.73 14.12Q20.59 14.89 20.73 16.29L20.73 16.29L19.25 16.29Q19.14 15.37 18.71 14.96Q18.28 14.55 17.45 14.55L17.45 14.55Q16.48 14.55 15.97 15.26Q15.45 15.96 15.44 17.33L15.44 17.33L15.44 18.09Q15.44 19.47 15.93 20.20Q16.43 20.92 17.38 20.92L17.38 20.92Q18.25 20.92 18.69 20.53Q19.13 20.14 19.25 19.22L19.25 19.22L20.73 19.22Q20.60 20.59 19.72 21.35Q18.84 22.12 17.38 22.12L17.38 22.12Q16.36 22.12 15.59 21.63Q14.81 21.15 14.39 20.26Q13.97 19.37 13.95 18.19ZM30.39 22L25.04 22L25.04 13.47L26.52 13.47L26.52 20.82L30.39 20.82L30.39 22ZM40.10 22L34.52 22L34.52 13.47L40.06 13.47L40.06 14.66L36.00 14.66L36.00 17.02L39.51 17.02L39.51 18.19L36.00 18.19L36.00 20.82L40.10 20.82L40.10 22ZM45.07 22L43.53 22L46.75 13.47L48.08 13.47L51.31 22L49.77 22L49.07 20.01L45.76 20.01L45.07 22ZM47.42 15.28L46.18 18.82L48.65 18.82L47.42 15.28ZM56.75 22L55.27 22L55.27 13.47L56.75 13.47L60.56 19.54L60.56 13.47L62.04 13.47L62.04 22L60.55 22L56.75 15.95L56.75 22ZM72.48 18.19L72.48 18.19L72.48 17.39Q72.48 16.19 72.91 15.27Q73.34 14.35 74.14 13.85Q74.94 13.35 75.99 13.35L75.99 13.35Q77.40 13.35 78.26 14.12Q79.12 14.89 79.26 16.29L79.26 16.29L77.79 16.29Q77.68 15.37 77.25 14.96Q76.82 14.55 75.99 14.55L75.99 14.55Q75.02 14.55 74.50 15.26Q73.98 15.96 73.97 17.33L73.97 17.33L73.97 18.09Q73.97 19.47 74.47 20.20Q74.96 20.92 75.92 20.92L75.92 20.92Q76.79 20.92 77.23 20.53Q77.67 20.14 77.79 19.22L77.79 19.22L79.26 19.22Q79.13 20.59 78.25 21.35Q77.38 22.12 75.92 22.12L75.92 22.12Q74.90 22.12 74.12 21.63Q73.34 21.15 72.92 20.26Q72.50 19.37 72.48 18.19ZM83.31 18.00L83.31 18.00L83.31 17.52Q83.31 16.28 83.75 15.32Q84.19 14.37 85.00 13.86Q85.80 13.35 86.84 13.35Q87.89 13.35 88.69 13.85Q89.50 14.35 89.94 15.29Q90.38 16.23 90.38 17.48L90.38 17.48L90.38 17.96Q90.38 19.21 89.95 20.16Q89.52 21.10 88.71 21.61Q87.90 22.12 86.86 22.12L86.86 22.12Q85.82 22.12 85.01 21.61Q84.20 21.10 83.75 20.17Q83.31 19.23 83.31 18.00ZM84.79 17.46L84.79 17.96Q84.79 19.36 85.34 20.13Q85.88 20.90 86.86 20.90L86.86 20.90Q87.84 20.90 88.37 20.15Q88.90 19.40 88.90 17.96L88.90 17.96L88.90 17.51Q88.90 16.09 88.36 15.34Q87.83 14.58 86.84 14.58L86.84 14.58Q85.88 14.58 85.34 15.33Q84.80 16.09 84.79 17.46L84.79 17.46ZM97.30 22L94.85 22L94.85 13.47L97.37 13.47Q98.50 13.47 99.37 13.97Q100.25 14.48 100.73 15.40Q101.21 16.33 101.21 17.52L101.21 17.52L101.21 17.95Q101.21 19.16 100.73 20.08Q100.24 21.00 99.35 21.50Q98.46 22 97.30 22L97.30 22ZM96.33 14.66L96.33 20.82L97.30 20.82Q98.46 20.82 99.09 20.09Q99.71 19.36 99.72 17.99L99.72 17.99L99.72 17.52Q99.72 16.13 99.12 15.40Q98.52 14.66 97.37 14.66L97.37 14.66L96.33 14.66ZM111.25 22L105.68 22L105.68 13.47L111.21 13.47L111.21 14.66L107.16 14.66L107.16 17.02L110.66 17.02L110.66 18.19L107.16 18.19L107.16 20.82L111.25 20.82L111.25 22Z" fill="#FFFFFF"/><path class="svg__text" d="M137.01 19.53L137.01 19.53Q137.01 18.89 137.32 18.40Q137.63 17.91 138.21 17.57L138.21 17.57Q137.78 17.27 137.54 16.84Q137.31 16.41 137.31 15.88L137.31 15.88Q137.31 15.15 137.73 14.59Q138.15 14.03 138.91 13.73Q139.67 13.43 140.66 13.43L140.66 13.43Q141.64 13.43 142.40 13.73Q143.17 14.03 143.58 14.59Q144.00 15.15 144.00 15.88L144.00 15.88Q144.00 16.41 143.77 16.84Q143.54 17.27 143.11 17.57L143.11 17.57Q143.68 17.91 143.99 18.40Q144.31 18.89 144.31 19.53L144.31 19.53Q144.31 20.32 143.85 20.92Q143.39 21.52 142.57 21.84Q141.74 22.17 140.66 22.17L140.66 22.17Q139.58 22.17 138.75 21.84Q137.92 21.52 137.46 20.92Q137.01 20.32 137.01 19.53ZM139.40 19.46L139.40 19.46Q139.40 19.94 139.74 20.22Q140.08 20.50 140.66 20.50L140.66 20.50Q141.23 20.50 141.57 20.22Q141.92 19.94 141.92 19.46L141.92 19.46Q141.92 18.98 141.57 18.70Q141.23 18.41 140.66 18.41L140.66 18.41Q140.08 18.41 139.74 18.70Q139.40 18.98 139.40 19.46ZM139.66 15.99L139.66 15.99Q139.66 16.40 139.93 16.63Q140.20 16.86 140.66 16.86L140.66 16.86Q141.11 16.86 141.39 16.63Q141.67 16.40 141.67 15.99L141.67 15.99Q141.67 15.57 141.39 15.33Q141.11 15.10 140.66 15.10L140.66 15.10Q140.21 15.10 139.94 15.33Q139.66 15.57 139.66 15.99ZM156.72 23.20L154.69 23.20L158.65 11.90L160.68 11.90L156.72 23.20ZM172.20 15.44L170.64 15.44L170.64 13.60L174.58 13.60L174.58 22L172.20 22L172.20 15.44ZM179.32 17.80L179.32 17.80Q179.32 16.45 179.80 15.46Q180.27 14.46 181.11 13.95Q181.95 13.43 183.03 13.43L183.03 13.43Q184.09 13.43 184.93 13.95Q185.78 14.46 186.25 15.46Q186.72 16.45 186.72 17.80L186.72 17.80Q186.72 19.15 186.25 20.15Q185.78 21.14 184.94 21.65Q184.10 22.17 183.03 22.17L183.03 22.17Q181.95 22.17 181.11 21.65Q180.27 21.14 179.80 20.15Q179.32 19.16 179.32 17.80ZM181.71 17.80L181.71 17.80Q181.71 19.06 182.06 19.64Q182.42 20.22 183.03 20.22L183.03 20.22Q183.63 20.22 183.98 19.64Q184.34 19.06 184.34 17.80L184.34 17.80Q184.34 16.54 183.98 15.96Q183.63 15.38 183.03 15.38L183.03 15.38Q182.42 15.38 182.06 15.96Q181.71 16.54 181.71 17.80Z" fill="#FFFFFF" x="136.3"/></svg>