<svg xmlns="http://www.w3.org/2000/svg" width="199.33999999999997" height="35" viewBox="0 0 199.33999999999997 35"><rect class="svg__rect" x="0" y="0" width="125.3" height="35" fill="#31C4F3"/><rect class="svg__rect" x="123.3" y="0" width="76.03999999999999" height="35" fill="#389AD5"/><path class="svg__text" d="M13.95 18.19L13.95 18.19L13.95 17.39Q13.95 16.19 14.38 15.27Q14.80 14.35 15.60 13.85Q16.40 13.35 17.45 13.35L17.45 13.35Q18.86 13.35 19.73 14.12Q20.59 14.89 20.73 16.29L20.73 16.29L19.25 16.29Q19.14 15.37 18.71 14.96Q18.28 14.55 17.45 14.55L17.45 14.55Q16.48 14.55 15.97 15.26Q15.45 15.96 15.44 17.33L15.44 17.33L15.44 18.09Q15.44 19.47 15.93 20.20Q16.43 20.92 17.38 20.92L17.38 20.92Q18.25 20.92 18.69 20.53Q19.13 20.14 19.25 19.22L19.25 19.22L20.73 19.22Q20.60 20.59 19.72 21.35Q18.84 22.12 17.38 22.12L17.38 22.12Q16.36 22.12 15.59 21.63Q14.81 21.15 14.39 20.26Q13.97 19.37 13.95 18.19ZM30.39 22L25.04 22L25.04 13.47L26.52 13.47L26.52 20.82L30.39 20.82L30.39 22ZM40.10 22L34.52 22L34.52 13.47L40.06 13.47L40.06 14.66L36.00 14.66L36.00 17.02L39.51 17.02L39.51 18.19L36.00 18.19L36.00 20.82L40.10 20.82L40.10 22ZM45.07 22L43.53 22L46.75 13.47L48.08 13.47L51.31 22L49.77 22L49.07 20.01L45.76 20.01L45.07 22ZM47.42 15.28L46.18 18.82L48.65 18.82L47.42 15.28ZM56.75 22L55.27 22L55.27 13.47L56.75 13.47L60.56 19.54L60.56 13.47L62.04 13.47L62.04 22L60.55 22L56.75 15.95L56.75 22ZM72.48 18.19L72.48 18.19L72.48 17.39Q72.48 16.19 72.91 15.27Q73.34 14.35 74.14 13.85Q74.94 13.35 75.99 13.35L75.99 13.35Q77.40 13.35 78.26 14.12Q79.12 14.89 79.26 16.29L79.26 16.29L77.79 16.29Q77.68 15.37 77.25 14.96Q76.82 14.55 75.99 14.55L75.99 14.55Q75.02 14.55 74.50 15.26Q73.98 15.96 73.97 17.33L73.97 17.33L73.97 18.09Q73.97 19.47 74.47 20.20Q74.96 20.92 75.92 20.92L75.92 20.92Q76.79 20.92 77.23 20.53Q77.67 20.14 77.79 19.22L77.79 19.22L79.26 19.22Q79.13 20.59 78.25 21.35Q77.38 22.12 75.92 22.12L75.92 22.12Q74.90 22.12 74.12 21.63Q73.34 21.15 72.92 20.26Q72.50 19.37 72.48 18.19ZM83.31 18.00L83.31 18.00L83.31 17.52Q83.31 16.28 83.75 15.32Q84.19 14.37 85.00 13.86Q85.80 13.35 86.84 13.35Q87.89 13.35 88.69 13.85Q89.50 14.35 89.94 15.29Q90.38 16.23 90.38 17.48L90.38 17.48L90.38 17.96Q90.38 19.21 89.95 20.16Q89.52 21.10 88.71 21.61Q87.90 22.12 86.86 22.12L86.86 22.12Q85.82 22.12 85.01 21.61Q84.20 21.10 83.75 20.17Q83.31 19.23 83.31 18.00ZM84.79 17.46L84.79 17.96Q84.79 19.36 85.34 20.13Q85.88 20.90 86.86 20.90L86.86 20.90Q87.84 20.90 88.37 20.15Q88.90 19.40 88.90 17.96L88.90 17.96L88.90 17.51Q88.90 16.09 88.36 15.34Q87.83 14.58 86.84 14.58L86.84 14.58Q85.88 14.58 85.34 15.33Q84.80 16.09 84.79 17.46L84.79 17.46ZM97.30 22L94.85 22L94.85 13.47L97.37 13.47Q98.50 13.47 99.37 13.97Q100.25 14.48 100.73 15.40Q101.21 16.33 101.21 17.52L101.21 17.52L101.21 17.95Q101.21 19.16 100.73 20.08Q100.24 21.00 99.35 21.50Q98.46 22 97.30 22L97.30 22ZM96.33 14.66L96.33 20.82L97.30 20.82Q98.46 20.82 99.09 20.09Q99.71 19.36 99.72 17.99L99.72 17.99L99.72 17.52Q99.72 16.13 99.12 15.40Q98.52 14.66 97.37 14.66L97.37 14.66L96.33 14.66ZM111.25 22L105.68 22L105.68 13.47L111.21 13.47L111.21 14.66L107.16 14.66L107.16 17.02L110.66 17.02L110.66 18.19L107.16 18.19L107.16 20.82L111.25 20.82L111.25 22Z" fill="#FFFFFF"/><path class="svg__text" d="M138.28 15.44L136.72 15.44L136.72 13.60L140.66 13.60L140.66 22L138.28 22L138.28 15.44ZM145.40 17.80L145.40 17.80Q145.40 16.45 145.88 15.46Q146.35 14.46 147.19 13.95Q148.03 13.43 149.11 13.43L149.11 13.43Q150.17 13.43 151.01 13.95Q151.86 14.46 152.33 15.46Q152.80 16.45 152.80 17.80L152.80 17.80Q152.80 19.15 152.33 20.15Q151.86 21.14 151.02 21.65Q150.18 22.17 149.11 22.17L149.11 22.17Q148.03 22.17 147.19 21.65Q146.35 21.14 145.88 20.15Q145.40 19.16 145.40 17.80ZM147.79 17.80L147.79 17.80Q147.79 19.06 148.14 19.64Q148.50 20.22 149.11 20.22L149.11 20.22Q149.71 20.22 150.07 19.64Q150.42 19.06 150.42 17.80L150.42 17.80Q150.42 16.54 150.07 15.96Q149.71 15.38 149.11 15.38L149.11 15.38Q148.50 15.38 148.14 15.96Q147.79 16.54 147.79 17.80ZM165.25 23.20L163.22 23.20L167.18 11.90L169.21 11.90L165.25 23.20ZM179.46 19.53L179.46 19.53Q179.46 18.89 179.77 18.40Q180.09 17.91 180.66 17.57L180.66 17.57Q180.23 17.27 179.99 16.84Q179.76 16.41 179.76 15.88L179.76 15.88Q179.76 15.15 180.18 14.59Q180.60 14.03 181.36 13.73Q182.12 13.43 183.11 13.43L183.11 13.43Q184.09 13.43 184.86 13.73Q185.62 14.03 186.04 14.59Q186.45 15.15 186.45 15.88L186.45 15.88Q186.45 16.41 186.22 16.84Q185.99 17.27 185.56 17.57L185.56 17.57Q186.13 17.91 186.45 18.40Q186.76 18.89 186.76 19.53L186.76 19.53Q186.76 20.32 186.30 20.92Q185.85 21.52 185.02 21.84Q184.19 22.17 183.11 22.17L183.11 22.17Q182.03 22.17 181.20 21.84Q180.37 21.52 179.92 20.92Q179.46 20.32 179.46 19.53ZM181.85 19.46L181.85 19.46Q181.85 19.94 182.19 20.22Q182.53 20.50 183.11 20.50L183.11 20.50Q183.68 20.50 184.03 20.22Q184.37 19.94 184.37 19.46L184.37 19.46Q184.37 18.98 184.03 18.70Q183.68 18.41 183.11 18.41L183.11 18.41Q182.53 18.41 182.19 18.70Q181.85 18.98 181.85 19.46ZM182.11 15.99L182.11 15.99Q182.11 16.40 182.38 16.63Q182.65 16.86 183.11 16.86L183.11 16.86Q183.57 16.86 183.84 16.63Q184.12 16.40 184.12 15.99L184.12 15.99Q184.12 15.57 183.84 15.33Q183.57 15.10 183.11 15.10L183.11 15.10Q182.66 15.10 182.39 15.33Q182.11 15.57 182.11 15.99Z" fill="#FFFFFF" x="136.3"/></svg>