<svg xmlns="http://www.w3.org/2000/svg" width="185.03" height="35" viewBox="0 0 185.03 35"><rect class="svg__rect" x="0" y="0" width="185.03" height="35" fill="#419B5A"/><rect class="svg__rect" x="185.03" y="0" width="0" height="35" fill="#389AD5"/><path class="svg__text" d="M15.69 22L14.22 22L14.22 13.47L16.14 13.47L18.60 20.01L21.06 13.47L22.97 13.47L22.97 22L21.49 22L21.49 19.19L21.64 15.43L19.12 22L18.06 22L15.55 15.43L15.69 19.19L15.69 22ZM27.44 18.00L27.44 18.00L27.44 17.52Q27.44 16.28 27.88 15.32Q28.33 14.37 29.13 13.86Q29.94 13.35 30.98 13.35Q32.02 13.35 32.83 13.85Q33.64 14.35 34.07 15.29Q34.51 16.23 34.52 17.48L34.52 17.48L34.52 17.96Q34.52 19.21 34.09 20.16Q33.65 21.10 32.85 21.61Q32.04 22.12 30.99 22.12L30.99 22.12Q29.96 22.12 29.14 21.61Q28.33 21.10 27.89 20.17Q27.45 19.23 27.44 18.00ZM28.92 17.46L28.92 17.96Q28.92 19.36 29.47 20.13Q30.02 20.90 30.99 20.90L30.99 20.90Q31.98 20.90 32.51 20.15Q33.04 19.40 33.04 17.96L33.04 17.96L33.04 17.51Q33.04 16.09 32.50 15.34Q31.97 14.58 30.98 14.58L30.98 14.58Q30.02 14.58 29.48 15.33Q28.94 16.09 28.92 17.46L28.92 17.46ZM40.47 22L38.98 22L38.98 13.47L40.47 13.47L44.28 19.54L44.28 13.47L45.75 13.47L45.75 22L44.27 22L40.47 15.95L40.47 22ZM52.06 22L50.58 22L50.58 13.47L52.06 13.47L52.06 22ZM58.55 14.66L55.91 14.66L55.91 13.47L62.68 13.47L62.68 14.66L60.02 14.66L60.02 22L58.55 22L58.55 14.66ZM66.17 18.00L66.17 18.00L66.17 17.52Q66.17 16.28 66.61 15.32Q67.05 14.37 67.86 13.86Q68.66 13.35 69.71 13.35Q70.75 13.35 71.55 13.85Q72.36 14.35 72.80 15.29Q73.24 16.23 73.24 17.48L73.24 17.48L73.24 17.96Q73.24 19.21 72.81 20.16Q72.38 21.10 71.57 21.61Q70.77 22.12 69.72 22.12L69.72 22.12Q68.68 22.12 67.87 21.61Q67.06 21.10 66.61 20.17Q66.17 19.23 66.17 18.00ZM67.65 17.46L67.65 17.96Q67.65 19.36 68.20 20.13Q68.74 20.90 69.72 20.90L69.72 20.90Q70.70 20.90 71.23 20.15Q71.76 19.40 71.76 17.96L71.76 17.96L71.76 17.51Q71.76 16.09 71.23 15.34Q70.69 14.58 69.71 14.58L69.71 14.58Q68.74 14.58 68.20 15.33Q67.66 16.09 67.65 17.46L67.65 17.46ZM79.19 22L77.71 22L77.71 13.47L80.71 13.47Q82.19 13.47 82.99 14.13Q83.79 14.79 83.79 16.05L83.79 16.05Q83.79 16.90 83.38 17.48Q82.97 18.06 82.23 18.37L82.23 18.37L84.14 21.92L84.14 22L82.56 22L80.84 18.71L79.19 18.71L79.19 22ZM79.19 14.66L79.19 17.52L80.72 17.52Q81.47 17.52 81.89 17.15Q82.31 16.77 82.31 16.11L82.31 16.11Q82.31 15.43 81.92 15.05Q81.53 14.68 80.76 14.66L80.76 14.66L79.19 14.66ZM95.64 22L94.16 22L94.16 13.47L99.58 13.47L99.58 14.66L95.64 14.66L95.64 17.20L99.08 17.20L99.08 18.38L95.64 18.38L95.64 22ZM109.32 22L103.74 22L103.74 13.47L109.28 13.47L109.28 14.66L105.22 14.66L105.22 17.02L108.73 17.02L108.73 18.19L105.22 18.19L105.22 20.82L109.32 20.82L109.32 22ZM119.09 22L113.52 22L113.52 13.47L119.05 13.47L119.05 14.66L115.00 14.66L115.00 17.02L118.50 17.02L118.50 18.19L115.00 18.19L115.00 20.82L119.09 20.82L119.09 22ZM125.74 22L123.29 22L123.29 13.47L125.81 13.47Q126.94 13.47 127.82 13.97Q128.69 14.48 129.17 15.40Q129.65 16.33 129.65 17.52L129.65 17.52L129.65 17.95Q129.65 19.16 129.17 20.08Q128.69 21.00 127.79 21.50Q126.90 22 125.74 22L125.74 22ZM124.77 14.66L124.77 20.82L125.74 20.82Q126.90 20.82 127.53 20.09Q128.15 19.36 128.16 17.99L128.16 17.99L128.16 17.52Q128.16 16.13 127.56 15.40Q126.96 14.66 125.81 14.66L125.81 14.66L124.77 14.66ZM137.23 22L134.12 22L134.12 13.47L137.04 13.47Q138.49 13.47 139.24 14.05Q140.00 14.63 140.00 15.78L140.00 15.78Q140.00 16.36 139.68 16.83Q139.37 17.30 138.76 17.56L138.76 17.56Q139.45 17.75 139.83 18.26Q140.21 18.78 140.21 19.51L140.21 19.51Q140.21 20.71 139.43 21.36Q138.66 22 137.23 22L137.23 22ZM135.60 18.15L135.60 20.82L137.25 20.82Q137.94 20.82 138.34 20.47Q138.73 20.13 138.73 19.51L138.73 19.51Q138.73 18.18 137.37 18.15L137.37 18.15L135.60 18.15ZM135.60 14.66L135.60 17.06L137.05 17.06Q137.74 17.06 138.13 16.75Q138.52 16.43 138.52 15.86L138.52 15.86Q138.52 15.23 138.16 14.95Q137.80 14.66 137.04 14.66L137.04 14.66L135.60 14.66ZM145.46 22L143.91 22L147.14 13.47L148.47 13.47L151.70 22L150.15 22L149.45 20.01L146.15 20.01L145.46 22ZM147.80 15.28L146.56 18.82L149.04 18.82L147.80 15.28ZM155.38 18.19L155.38 18.19L155.38 17.39Q155.38 16.19 155.81 15.27Q156.24 14.35 157.04 13.85Q157.84 13.35 158.89 13.35L158.89 13.35Q160.30 13.35 161.16 14.12Q162.02 14.89 162.16 16.29L162.16 16.29L160.68 16.29Q160.58 15.37 160.15 14.96Q159.72 14.55 158.89 14.55L158.89 14.55Q157.92 14.55 157.40 15.26Q156.88 15.96 156.87 17.33L156.87 17.33L156.87 18.09Q156.87 19.47 157.36 20.20Q157.86 20.92 158.81 20.92L158.81 20.92Q159.69 20.92 160.13 20.53Q160.57 20.14 160.68 19.22L160.68 19.22L162.16 19.22Q162.03 20.59 161.15 21.35Q160.27 22.12 158.81 22.12L158.81 22.12Q157.80 22.12 157.02 21.63Q156.24 21.15 155.82 20.26Q155.40 19.37 155.38 18.19ZM167.96 22L166.47 22L166.47 13.47L167.96 13.47L167.96 17.47L168.78 16.46L171.27 13.47L173.06 13.47L169.89 17.25L173.25 22L171.49 22L168.92 18.31L167.96 19.34L167.96 22Z" fill="#FFFFFF"/><path class="svg__text" d="" fill="#FFFFFF" x="198.03"/></svg>