<svg xmlns="http://www.w3.org/2000/svg" width="98.36000000000001" height="35" viewBox="0 0 98.36000000000001 35"><rect class="svg__rect" x="0" y="0" width="64.59" height="35" fill="#31C4F3"/><rect class="svg__rect" x="62.59" y="0" width="35.77000000000001" height="35" fill="#389AD5"/><path class="svg__text" d="M15.70 22L14.22 22L14.22 13.47L17.22 13.47Q18.69 13.47 19.50 14.13Q20.30 14.79 20.30 16.05L20.30 16.05Q20.30 16.90 19.89 17.48Q19.47 18.06 18.73 18.37L18.73 18.37L20.65 21.92L20.65 22L19.06 22L17.35 18.71L15.70 18.71L15.70 22ZM15.70 14.66L15.70 17.52L17.22 17.52Q17.97 17.52 18.39 17.15Q18.82 16.77 18.82 16.11L18.82 16.11Q18.82 15.43 18.43 15.05Q18.04 14.68 17.26 14.66L17.26 14.66L15.70 14.66ZM25.47 22L23.93 22L27.15 13.47L28.48 13.47L31.71 22L30.17 22L29.47 20.01L26.16 20.01L25.47 22ZM27.82 15.28L26.58 18.82L29.05 18.82L27.82 15.28ZM37.35 14.66L34.71 14.66L34.71 13.47L41.48 13.47L41.48 14.66L38.82 14.66L38.82 22L37.35 22L37.35 14.66ZM50.81 22L45.24 22L45.24 13.47L50.77 13.47L50.77 14.66L46.72 14.66L46.72 17.02L50.22 17.02L50.22 18.19L46.72 18.19L46.72 20.82L50.81 20.82L50.81 22Z" fill="#FFFFFF"/><path class="svg__text" d="M78.20 22L75.77 22L79.48 13.60L81.82 13.60L85.54 22L83.07 22L82.41 20.37L78.86 20.37L78.20 22ZM80.63 15.93L79.55 18.61L81.71 18.61L80.63 15.93Z" fill="#FFFFFF" x="75.59"/></svg>