<svg xmlns="http://www.w3.org/2000/svg" width="198.49" height="35" viewBox="0 0 198.49 35"><rect class="svg__rect" x="0" y="0" width="124.85" height="35" fill="#31C4F3"/><rect class="svg__rect" x="122.85" y="0" width="75.64000000000001" height="35" fill="#389AD5"/><path class="svg__text" d="M15.70 22L14.22 22L14.22 13.47L17.22 13.47Q18.69 13.47 19.50 14.13Q20.30 14.79 20.30 16.05L20.30 16.05Q20.30 16.90 19.89 17.48Q19.47 18.06 18.73 18.37L18.73 18.37L20.65 21.92L20.65 22L19.06 22L17.35 18.71L15.70 18.71L15.70 22ZM15.70 14.66L15.70 17.52L17.22 17.52Q17.97 17.52 18.39 17.15Q18.82 16.77 18.82 16.11L18.82 16.11Q18.82 15.43 18.43 15.05Q18.04 14.68 17.26 14.66L17.26 14.66L15.70 14.66ZM30.27 22L24.69 22L24.69 13.47L30.23 13.47L30.23 14.66L26.18 14.66L26.18 17.02L29.68 17.02L29.68 18.19L26.18 18.19L26.18 20.82L30.27 20.82L30.27 22ZM34.03 19.42L34.03 19.42L35.52 19.42Q35.52 20.15 36.00 20.55Q36.48 20.95 37.37 20.95L37.37 20.95Q38.15 20.95 38.54 20.63Q38.93 20.32 38.93 19.80L38.93 19.80Q38.93 19.24 38.53 18.94Q38.14 18.63 37.10 18.32Q36.07 18.01 35.46 17.63L35.46 17.63Q34.30 16.90 34.30 15.72L34.30 15.72Q34.30 14.69 35.14 14.02Q35.98 13.35 37.32 13.35L37.32 13.35Q38.21 13.35 38.91 13.68Q39.61 14.01 40.00 14.61Q40.40 15.22 40.40 15.96L40.40 15.96L38.93 15.96Q38.93 15.29 38.51 14.91Q38.09 14.54 37.31 14.54L37.31 14.54Q36.58 14.54 36.18 14.85Q35.78 15.16 35.78 15.71L35.78 15.71Q35.78 16.18 36.21 16.50Q36.65 16.81 37.64 17.10Q38.64 17.40 39.24 17.78Q39.85 18.16 40.13 18.65Q40.41 19.13 40.41 19.79L40.41 19.79Q40.41 20.86 39.59 21.49Q38.77 22.12 37.37 22.12L37.37 22.12Q36.45 22.12 35.67 21.77Q34.89 21.43 34.46 20.83Q34.03 20.22 34.03 19.42ZM46.18 22L44.70 22L44.70 13.47L47.96 13.47Q49.39 13.47 50.23 14.21Q51.07 14.96 51.07 16.18L51.07 16.18Q51.07 17.44 50.25 18.13Q49.43 18.83 47.94 18.83L47.94 18.83L46.18 18.83L46.18 22ZM46.18 14.66L46.18 17.64L47.96 17.64Q48.75 17.64 49.17 17.27Q49.58 16.90 49.58 16.19L49.58 16.19Q49.58 15.50 49.16 15.09Q48.74 14.68 48.00 14.66L48.00 14.66L46.18 14.66ZM55.09 18.00L55.09 18.00L55.09 17.52Q55.09 16.28 55.53 15.32Q55.97 14.37 56.78 13.86Q57.58 13.35 58.63 13.35Q59.67 13.35 60.47 13.85Q61.28 14.35 61.72 15.29Q62.16 16.23 62.16 17.48L62.16 17.48L62.16 17.96Q62.16 19.21 61.73 20.16Q61.30 21.10 60.49 21.61Q59.69 22.12 58.64 22.12L58.64 22.12Q57.60 22.12 56.79 21.61Q55.98 21.10 55.53 20.17Q55.09 19.23 55.09 18.00ZM56.57 17.46L56.57 17.96Q56.57 19.36 57.12 20.13Q57.66 20.90 58.64 20.90L58.64 20.90Q59.62 20.90 60.15 20.15Q60.68 19.40 60.68 17.96L60.68 17.96L60.68 17.51Q60.68 16.09 60.15 15.34Q59.61 14.58 58.63 14.58L58.63 14.58Q57.66 14.58 57.12 15.33Q56.58 16.09 56.57 17.46L56.57 17.46ZM68.11 22L66.63 22L66.63 13.47L68.11 13.47L71.93 19.54L71.93 13.47L73.40 13.47L73.40 22L71.91 22L68.11 15.95L68.11 22ZM77.70 19.42L77.70 19.42L79.19 19.42Q79.19 20.15 79.67 20.55Q80.15 20.95 81.04 20.95L81.04 20.95Q81.82 20.95 82.21 20.63Q82.60 20.32 82.60 19.80L82.60 19.80Q82.60 19.24 82.20 18.94Q81.81 18.63 80.77 18.32Q79.74 18.01 79.13 17.63L79.13 17.63Q77.97 16.90 77.97 15.72L77.97 15.72Q77.97 14.69 78.81 14.02Q79.65 13.35 80.99 13.35L80.99 13.35Q81.88 13.35 82.58 13.68Q83.28 14.01 83.67 14.61Q84.07 15.22 84.07 15.96L84.07 15.96L82.60 15.96Q82.60 15.29 82.18 14.91Q81.76 14.54 80.98 14.54L80.98 14.54Q80.25 14.54 79.85 14.85Q79.45 15.16 79.45 15.71L79.45 15.71Q79.45 16.18 79.88 16.50Q80.32 16.81 81.31 17.10Q82.31 17.40 82.91 17.78Q83.52 18.16 83.80 18.65Q84.08 19.13 84.08 19.79L84.08 19.79Q84.08 20.86 83.26 21.49Q82.44 22.12 81.04 22.12L81.04 22.12Q80.12 22.12 79.34 21.77Q78.56 21.43 78.13 20.83Q77.70 20.22 77.70 19.42ZM89.93 22L88.46 22L88.46 13.47L89.93 13.47L89.93 22ZM97.04 22L93.98 13.47L95.60 13.47L97.75 20.14L99.92 13.47L101.55 13.47L98.47 22L97.04 22ZM111.07 22L105.49 22L105.49 13.47L111.03 13.47L111.03 14.66L106.98 14.66L106.98 17.02L110.48 17.02L110.48 18.19L106.98 18.19L106.98 20.82L111.07 20.82L111.07 22Z" fill="#FFFFFF"/><path class="svg__text" d="M136.39 16.30L136.39 16.30Q136.39 15.45 136.83 14.80Q137.27 14.14 138.02 13.79Q138.77 13.43 139.68 13.43L139.68 13.43Q141.49 13.43 142.54 14.50Q143.58 15.57 143.58 17.57L143.58 17.57Q143.58 19.01 143.02 20.05Q142.46 21.09 141.45 21.63Q140.44 22.17 139.11 22.17L139.11 22.17Q138.40 22.17 137.75 22.01Q137.10 21.84 136.65 21.55L136.65 21.55L137.51 19.85Q138.12 20.28 139.05 20.28L139.05 20.28Q139.96 20.28 140.51 19.79Q141.07 19.29 141.17 18.34L141.17 18.34Q140.45 18.95 139.28 18.95L139.28 18.95Q138.49 18.95 137.83 18.62Q137.17 18.29 136.78 17.68Q136.39 17.08 136.39 16.30ZM138.70 16.19L138.70 16.19Q138.70 16.67 139.02 16.96Q139.33 17.25 139.85 17.25L139.85 17.25Q140.37 17.25 140.69 16.96Q141.01 16.66 141.01 16.18L141.01 16.18Q141.01 15.71 140.69 15.42Q140.38 15.12 139.84 15.12L139.84 15.12Q139.33 15.12 139.02 15.41Q138.70 15.70 138.70 16.19ZM156.03 23.20L154.00 23.20L157.96 11.90L159.99 11.90L156.03 23.20ZM171.51 15.44L169.95 15.44L169.95 13.60L173.89 13.60L173.89 22L171.51 22L171.51 15.44ZM178.63 17.80L178.63 17.80Q178.63 16.45 179.11 15.46Q179.58 14.46 180.42 13.95Q181.26 13.43 182.34 13.43L182.34 13.43Q183.40 13.43 184.24 13.95Q185.08 14.46 185.56 15.46Q186.03 16.45 186.03 17.80L186.03 17.80Q186.03 19.15 185.56 20.15Q185.08 21.14 184.25 21.65Q183.41 22.17 182.34 22.17L182.34 22.17Q181.26 22.17 180.42 21.65Q179.58 21.14 179.11 20.15Q178.63 19.16 178.63 17.80ZM181.02 17.80L181.02 17.80Q181.02 19.06 181.37 19.64Q181.73 20.22 182.34 20.22L182.34 20.22Q182.94 20.22 183.29 19.64Q183.65 19.06 183.65 17.80L183.65 17.80Q183.65 16.54 183.29 15.96Q182.94 15.38 182.34 15.38L182.34 15.38Q181.73 15.38 181.37 15.96Q181.02 16.54 181.02 17.80Z" fill="#FFFFFF" x="135.85"/></svg>