<svg xmlns="http://www.w3.org/2000/svg" width="263.87" height="35" viewBox="0 0 263.87 35"><rect class="svg__rect" x="0" y="0" width="190.16" height="35" fill="#31C4F3"/><rect class="svg__rect" x="188.16" y="0" width="75.71000000000001" height="35" fill="#389AD5"/><path class="svg__text" d="M15.70 22L14.22 22L14.22 13.47L17.22 13.47Q18.69 13.47 19.50 14.13Q20.30 14.79 20.30 16.05L20.30 16.05Q20.30 16.90 19.89 17.48Q19.47 18.06 18.73 18.37L18.73 18.37L20.65 21.92L20.65 22L19.06 22L17.35 18.71L15.70 18.71L15.70 22ZM15.70 14.66L15.70 17.52L17.22 17.52Q17.97 17.52 18.39 17.15Q18.82 16.77 18.82 16.11L18.82 16.11Q18.82 15.43 18.43 15.05Q18.04 14.68 17.26 14.66L17.26 14.66L15.70 14.66ZM30.27 22L24.69 22L24.69 13.47L30.23 13.47L30.23 14.66L26.18 14.66L26.18 17.02L29.68 17.02L29.68 18.19L26.18 18.19L26.18 20.82L30.27 20.82L30.27 22ZM34.03 19.42L34.03 19.42L35.52 19.42Q35.52 20.15 36.00 20.55Q36.48 20.95 37.37 20.95L37.37 20.95Q38.15 20.95 38.54 20.63Q38.93 20.32 38.93 19.80L38.93 19.80Q38.93 19.24 38.53 18.94Q38.14 18.63 37.10 18.32Q36.07 18.01 35.46 17.63L35.46 17.63Q34.30 16.90 34.30 15.72L34.30 15.72Q34.30 14.69 35.14 14.02Q35.98 13.35 37.32 13.35L37.32 13.35Q38.21 13.35 38.91 13.68Q39.61 14.01 40.00 14.61Q40.40 15.22 40.40 15.96L40.40 15.96L38.93 15.96Q38.93 15.29 38.51 14.91Q38.09 14.54 37.31 14.54L37.31 14.54Q36.58 14.54 36.18 14.85Q35.78 15.16 35.78 15.71L35.78 15.71Q35.78 16.18 36.21 16.50Q36.65 16.81 37.64 17.10Q38.64 17.40 39.24 17.78Q39.85 18.16 40.13 18.65Q40.41 19.13 40.41 19.79L40.41 19.79Q40.41 20.86 39.59 21.49Q38.77 22.12 37.37 22.12L37.37 22.12Q36.45 22.12 35.67 21.77Q34.89 21.43 34.46 20.83Q34.03 20.22 34.03 19.42ZM46.18 22L44.70 22L44.70 13.47L47.96 13.47Q49.39 13.47 50.23 14.21Q51.07 14.96 51.07 16.18L51.07 16.18Q51.07 17.44 50.25 18.13Q49.43 18.83 47.94 18.83L47.94 18.83L46.18 18.83L46.18 22ZM46.18 14.66L46.18 17.64L47.96 17.64Q48.75 17.64 49.17 17.27Q49.58 16.90 49.58 16.19L49.58 16.19Q49.58 15.50 49.16 15.09Q48.74 14.68 48.00 14.66L48.00 14.66L46.18 14.66ZM55.09 18.00L55.09 18.00L55.09 17.52Q55.09 16.28 55.53 15.32Q55.97 14.37 56.78 13.86Q57.58 13.35 58.63 13.35Q59.67 13.35 60.47 13.85Q61.28 14.35 61.72 15.29Q62.16 16.23 62.16 17.48L62.16 17.48L62.16 17.96Q62.16 19.21 61.73 20.16Q61.30 21.10 60.49 21.61Q59.69 22.12 58.64 22.12L58.64 22.12Q57.60 22.12 56.79 21.61Q55.98 21.10 55.53 20.17Q55.09 19.23 55.09 18.00ZM56.57 17.46L56.57 17.96Q56.57 19.36 57.12 20.13Q57.66 20.90 58.64 20.90L58.64 20.90Q59.62 20.90 60.15 20.15Q60.68 19.40 60.68 17.96L60.68 17.96L60.68 17.51Q60.68 16.09 60.15 15.34Q59.61 14.58 58.63 14.58L58.63 14.58Q57.66 14.58 57.12 15.33Q56.58 16.09 56.57 17.46L56.57 17.46ZM68.11 22L66.63 22L66.63 13.47L68.11 13.47L71.93 19.54L71.93 13.47L73.40 13.47L73.40 22L71.91 22L68.11 15.95L68.11 22ZM77.70 19.42L77.70 19.42L79.19 19.42Q79.19 20.15 79.67 20.55Q80.15 20.95 81.04 20.95L81.04 20.95Q81.82 20.95 82.21 20.63Q82.60 20.32 82.60 19.80L82.60 19.80Q82.60 19.24 82.20 18.94Q81.81 18.63 80.77 18.32Q79.74 18.01 79.13 17.63L79.13 17.63Q77.97 16.90 77.97 15.72L77.97 15.72Q77.97 14.69 78.81 14.02Q79.65 13.35 80.99 13.35L80.99 13.35Q81.88 13.35 82.58 13.68Q83.28 14.01 83.67 14.61Q84.07 15.22 84.07 15.96L84.07 15.96L82.60 15.96Q82.60 15.29 82.18 14.91Q81.76 14.54 80.98 14.54L80.98 14.54Q80.25 14.54 79.85 14.85Q79.45 15.16 79.45 15.71L79.45 15.71Q79.45 16.18 79.88 16.50Q80.32 16.81 81.31 17.10Q82.31 17.40 82.91 17.78Q83.52 18.16 83.80 18.65Q84.08 19.13 84.08 19.79L84.08 19.79Q84.08 20.86 83.26 21.49Q82.44 22.12 81.04 22.12L81.04 22.12Q80.12 22.12 79.34 21.77Q78.56 21.43 78.13 20.83Q77.70 20.22 77.70 19.42ZM89.93 22L88.46 22L88.46 13.47L89.93 13.47L89.93 22ZM97.04 22L93.98 13.47L95.60 13.47L97.75 20.14L99.92 13.47L101.55 13.47L98.47 22L97.04 22ZM111.07 22L105.49 22L105.49 13.47L111.03 13.47L111.03 14.66L106.98 14.66L106.98 17.02L110.48 17.02L110.48 18.19L106.98 18.19L106.98 20.82L111.07 20.82L111.07 22ZM123.70 22L121.24 22L121.24 13.47L123.76 13.47Q124.89 13.47 125.77 13.97Q126.65 14.48 127.13 15.40Q127.61 16.33 127.61 17.52L127.61 17.52L127.61 17.95Q127.61 19.16 127.12 20.08Q126.64 21.00 125.75 21.50Q124.85 22 123.70 22L123.70 22ZM122.73 14.66L122.73 20.82L123.69 20.82Q124.86 20.82 125.48 20.09Q126.11 19.36 126.12 17.99L126.12 17.99L126.12 17.52Q126.12 16.13 125.52 15.40Q124.91 14.66 123.76 14.66L123.76 14.66L122.73 14.66ZM137.65 22L132.07 22L132.07 13.47L137.61 13.47L137.61 14.66L133.56 14.66L133.56 17.02L137.06 17.02L137.06 18.19L133.56 18.19L133.56 20.82L137.65 20.82L137.65 22ZM141.41 19.42L141.41 19.42L142.89 19.42Q142.89 20.15 143.38 20.55Q143.86 20.95 144.75 20.95L144.75 20.95Q145.53 20.95 145.92 20.63Q146.31 20.32 146.31 19.80L146.31 19.80Q146.31 19.24 145.91 18.94Q145.51 18.63 144.48 18.32Q143.45 18.01 142.84 17.63L142.84 17.63Q141.68 16.90 141.68 15.72L141.68 15.72Q141.68 14.69 142.52 14.02Q143.36 13.35 144.70 13.35L144.70 13.35Q145.59 13.35 146.29 13.68Q146.98 14.01 147.38 14.61Q147.78 15.22 147.78 15.96L147.78 15.96L146.31 15.96Q146.31 15.29 145.89 14.91Q145.47 14.54 144.69 14.54L144.69 14.54Q143.96 14.54 143.56 14.85Q143.16 15.16 143.16 15.71L143.16 15.71Q143.16 16.18 143.59 16.50Q144.03 16.81 145.02 17.10Q146.02 17.40 146.62 17.78Q147.22 18.16 147.51 18.65Q147.79 19.13 147.79 19.79L147.79 19.79Q147.79 20.86 146.97 21.49Q146.15 22.12 144.75 22.12L144.75 22.12Q143.83 22.12 143.05 21.77Q142.27 21.43 141.84 20.83Q141.41 20.22 141.41 19.42ZM153.64 22L152.16 22L152.16 13.47L153.64 13.47L153.64 22ZM158.21 18.13L158.21 18.13L158.21 17.46Q158.21 15.53 159.13 14.44Q160.06 13.35 161.72 13.35L161.72 13.35Q163.14 13.35 163.98 14.05Q164.81 14.76 164.98 16.08L164.98 16.08L163.53 16.08Q163.29 14.54 161.74 14.54L161.74 14.54Q160.75 14.54 160.23 15.26Q159.71 15.98 159.69 17.37L159.69 17.37L159.69 18.02Q159.69 19.40 160.28 20.17Q160.86 20.93 161.90 20.93L161.90 20.93Q163.03 20.93 163.51 20.42L163.51 20.42L163.51 18.75L161.76 18.75L161.76 17.62L164.99 17.62L164.99 20.89Q164.53 21.50 163.71 21.81Q162.89 22.12 161.84 22.12L161.84 22.12Q160.77 22.12 159.95 21.63Q159.12 21.14 158.67 20.24Q158.22 19.33 158.21 18.13ZM171.09 22L169.61 22L169.61 13.47L171.09 13.47L174.90 19.54L174.90 13.47L176.38 13.47L176.38 22L174.89 22L171.09 15.95L171.09 22Z" fill="#FFFFFF"/><path class="svg__text" d="M201.87 19.53L201.87 19.53Q201.87 18.89 202.18 18.40Q202.49 17.91 203.07 17.57L203.07 17.57Q202.63 17.27 202.40 16.84Q202.17 16.41 202.17 15.88L202.17 15.88Q202.17 15.15 202.59 14.59Q203.01 14.03 203.77 13.73Q204.53 13.43 205.52 13.43L205.52 13.43Q206.50 13.43 207.26 13.73Q208.03 14.03 208.44 14.59Q208.86 15.15 208.86 15.88L208.86 15.88Q208.86 16.41 208.63 16.84Q208.40 17.27 207.97 17.57L207.97 17.57Q208.54 17.91 208.85 18.40Q209.17 18.89 209.17 19.53L209.17 19.53Q209.17 20.32 208.71 20.92Q208.25 21.52 207.43 21.84Q206.60 22.17 205.52 22.17L205.52 22.17Q204.44 22.17 203.61 21.84Q202.78 21.52 202.32 20.92Q201.87 20.32 201.87 19.53ZM204.26 19.46L204.26 19.46Q204.26 19.94 204.60 20.22Q204.94 20.50 205.52 20.50L205.52 20.50Q206.09 20.50 206.43 20.22Q206.78 19.94 206.78 19.46L206.78 19.46Q206.78 18.98 206.43 18.70Q206.09 18.41 205.52 18.41L205.52 18.41Q204.94 18.41 204.60 18.70Q204.26 18.98 204.26 19.46ZM204.52 15.99L204.52 15.99Q204.52 16.40 204.79 16.63Q205.06 16.86 205.52 16.86L205.52 16.86Q205.97 16.86 206.25 16.63Q206.53 16.40 206.53 15.99L206.53 15.99Q206.53 15.57 206.25 15.33Q205.97 15.10 205.52 15.10L205.52 15.10Q205.07 15.10 204.80 15.33Q204.52 15.57 204.52 15.99ZM221.58 23.20L219.55 23.20L223.51 11.90L225.54 11.90L221.58 23.20ZM237.06 15.44L235.50 15.44L235.50 13.60L239.44 13.60L239.44 22L237.06 22L237.06 15.44ZM244.18 17.80L244.18 17.80Q244.18 16.45 244.66 15.46Q245.13 14.46 245.97 13.95Q246.81 13.43 247.89 13.43L247.89 13.43Q248.95 13.43 249.79 13.95Q250.63 14.46 251.11 15.46Q251.58 16.45 251.58 17.80L251.58 17.80Q251.58 19.15 251.11 20.15Q250.63 21.14 249.80 21.65Q248.96 22.17 247.89 22.17L247.89 22.17Q246.81 22.17 245.97 21.65Q245.13 21.14 244.66 20.15Q244.18 19.16 244.18 17.80ZM246.57 17.80L246.57 17.80Q246.57 19.06 246.92 19.64Q247.28 20.22 247.89 20.22L247.89 20.22Q248.49 20.22 248.84 19.64Q249.20 19.06 249.20 17.80L249.20 17.80Q249.20 16.54 248.84 15.96Q248.49 15.38 247.89 15.38L247.89 15.38Q247.28 15.38 246.92 15.96Q246.57 16.54 246.57 17.80Z" fill="#FFFFFF" x="201.16"/></svg>